<svg width="294" height="206" viewBox="0 0 294 206" fill="none" xmlns="http://www.w3.org/2000/svg">
<mask id="mask0" mask-type="alpha" maskUnits="userSpaceOnUse" x="0" y="0" width="294" height="206">
<rect width="293.97" height="205.356" rx="10" fill="#C4C4C4"/>
</mask>
<g mask="url(#mask0)">
<rect x="-34.8003" y="-41" width="363.171" height="287" fill="#F2F2F2"/>
</g>
<path d="M151 70.22C169 72.208 183 87.468 183 106V142H111V106C111 87.468 125 72.208 143 70.22V58H151V70.22ZM175 134V106C175 98.5739 172.05 91.452 166.799 86.201C161.548 80.95 154.426 78 147 78C139.574 78 132.452 80.95 127.201 86.201C121.95 91.452 119 98.5739 119 106V134H175ZM147 126C141.696 126 136.609 123.893 132.858 120.142C129.107 116.391 127 111.304 127 106C127 100.696 129.107 95.6086 132.858 91.8579C136.609 88.1071 141.696 86 147 86C152.304 86 157.391 88.1071 161.142 91.8579C164.893 95.6086 167 100.696 167 106C167 111.304 164.893 116.391 161.142 120.142C157.391 123.893 152.304 126 147 126ZM147 118C150.183 118 153.235 116.736 155.485 114.485C157.736 112.235 159 109.183 159 106C159 102.817 157.736 99.7652 155.485 97.5147C153.235 95.2643 150.183 94 147 94C143.817 94 140.765 95.2643 138.515 97.5147C136.264 99.7652 135 102.817 135 106C135 109.183 136.264 112.235 138.515 114.485C140.765 116.736 143.817 118 147 118ZM147 110C145.939 110 144.922 109.579 144.172 108.828C143.421 108.078 143 107.061 143 106C143 104.939 143.421 103.922 144.172 103.172C144.922 102.421 145.939 102 147 102C148.061 102 149.078 102.421 149.828 103.172C150.579 103.922 151 104.939 151 106C151 107.061 150.579 108.078 149.828 108.828C149.078 109.579 148.061 110 147 110Z" fill="#E0E0E0"/>
</svg>
