<svg width="31" height="36" viewBox="0 0 31 36" fill="none" xmlns="http://www.w3.org/2000/svg">
<g clip-path="url(#clip0)">
<rect x="0.949805" y="0.15" width="0.3" height="35.7" stroke="#A6ADC4" stroke-opacity="0.4" stroke-width="0.3"/>
<path fill-rule="evenodd" clip-rule="evenodd" d="M12.7561 8.43765C12.5963 8.59741 12.5963 8.85643 12.7561 9.01619C12.9158 9.17595 13.1748 9.17595 13.3346 9.01619L15.4999 6.85091L17.6651 9.01619C17.8249 9.17595 18.0839 9.17595 18.2437 9.01619C18.4034 8.85643 18.4034 8.59741 18.2437 8.43765L15.7891 5.9831C15.6294 5.82334 15.3704 5.82334 15.2106 5.9831L12.7561 8.43765Z" fill="black"/>
<path fill-rule="evenodd" clip-rule="evenodd" d="M18.2437 27.5616C18.4034 27.4019 18.4034 27.1429 18.2437 26.9831C18.0839 26.8233 17.8249 26.8233 17.6651 26.9831L15.4999 29.1484L13.3346 26.9831C13.1748 26.8233 12.9158 26.8233 12.7561 26.9831C12.5963 27.1429 12.5963 27.4019 12.7561 27.5616L15.2106 30.0162C15.3704 30.1759 15.6294 30.1759 15.7891 30.0162L18.2437 27.5616Z" fill="black"/>
<rect x="1.5499" y="18.15" width="28.5" height="0.3" stroke="#A6ADC4" stroke-opacity="0.4" stroke-width="0.3"/>
</g>
<defs>
<clipPath id="clip0">
<rect width="29.4" height="36" fill="white" transform="translate(0.799805)"/>
</clipPath>
</defs>
</svg>
