<svg width="32" height="32" viewBox="0 0 32 32" fill="none" xmlns="http://www.w3.org/2000/svg">
<g clip-path="url(#clip0)">
<path d="M16 31.9998C7.15723 31.9998 0 24.8337 0 16C0 7.15698 7.15601 0 16 0C24.843 0 31.9998 7.15601 31.9998 16C31.9998 24.8423 24.833 31.9998 16 31.9998Z" fill="#868686"/>
<path d="M16 0V31.9998C24.833 31.9998 31.9998 24.8423 31.9998 16C31.9998 7.15625 24.843 0 16 0Z" fill="#868686"/>
<path d="M28.4524 26.0461C25.4436 29.7666 20.9292 31.9998 16 31.9998V19.75C23.3342 19.75 26.8787 24.4812 28.4524 26.0461Z" fill="#3AB700"/>
<path d="M16 16.9375C12.8982 16.9375 10.375 14.4141 10.375 11.3125V9.4375C10.375 6.33594 12.8982 3.8125 16 3.8125C19.1016 3.8125 21.625 6.33594 21.625 9.4375V11.3125C21.625 14.4141 19.1016 16.9375 16 16.9375Z" fill="#3AB700"/>
<path d="M15.9998 19.75C11.3442 19.75 6.90527 21.7852 3.66113 26.1856C10.1213 33.9944 22.0791 33.9278 28.4521 26.0462C26.8784 24.4807 23.3337 19.75 15.9998 19.75Z" fill="#3AB700"/>
<path d="M16 3.8125V16.9375C19.1018 16.9375 21.625 14.4143 21.625 11.3125V9.4375C21.625 6.33569 19.1018 3.8125 16 3.8125Z" fill="#3AB700"/>
</g>
<defs>
<clipPath id="clip0">
<rect width="32" height="32" fill="white"/>
</clipPath>
</defs>
</svg>
